<svg version="1.2" xmlns="http://www.w3.org/2000/svg" viewBox="0 0 256 195" width="256" height="195">
	<title>filter-6551-svg</title>
	<style>
		.s0 { fill: #000000 } 
	</style>
	<g id="Layer">
		<path id="Layer" class="s0" d="m242.5 107.8h-84.9c-4.7 0-8.5-3.8-8.5-8.4 0-4.7 3.8-8.4 8.5-8.4h84.9c4.7 0 8.5 3.7 8.5 8.4 0 4.6-3.8 8.4-8.5 8.4z"/>
		<path id="Layer" fill-rule="evenodd" class="s0" d="m137.1 128.3c-15.9 0-28.8-13-28.8-28.9 0-15.9 12.9-28.9 28.8-28.9 16 0 28.9 13 28.9 28.9 0 15.9-12.9 28.9-28.9 28.9zm0-40.9c-6.6 0-12 5.4-12 12 0 6.6 5.4 12 12 12 6.7 0 12-5.4 12-12 0-6.6-5.3-12-12-12z"/>
		<path id="Layer" class="s0" d="m116.7 107.8h-103.5c-4.7 0-8.5-3.8-8.5-8.4 0-4.7 3.8-8.4 8.5-8.4h103.5c4.7 0 8.4 3.7 8.4 8.4 0 4.6-3.7 8.4-8.4 8.4z"/>
		<path id="Layer" class="s0" d="m242.5 42.8h-162.3c-4.7 0-8.5-3.8-8.5-8.5 0-4.6 3.8-8.4 8.5-8.4h162.3c4.7 0 8.5 3.8 8.5 8.4 0 4.7-3.8 8.5-8.5 8.5z"/>
		<path id="Layer" fill-rule="evenodd" class="s0" d="m59.7 63.2c-15.9 0-28.9-13-28.9-28.9 0-15.9 13-28.8 28.9-28.8 15.9 0 28.9 12.9 28.9 28.8 0 15.9-13 28.9-28.9 28.9zm0-40.9c-6.6 0-12 5.4-12 12 0 6.6 5.4 12 12 12 6.6 0 12-5.4 12-12 0-6.6-5.4-12-12-12z"/>
		<path id="Layer" class="s0" d="m242.5 172.9h-162.3c-4.7 0-8.5-3.8-8.5-8.5 0-4.6 3.8-8.4 8.5-8.4h162.3c4.7 0 8.5 3.8 8.5 8.4 0 4.7-3.8 8.5-8.5 8.5z"/>
		<path id="Layer" fill-rule="evenodd" class="s0" d="m59.7 193.3c-15.9 0-28.9-12.9-28.9-28.9 0-15.9 13-28.8 28.9-28.8 15.9 0 28.9 12.9 28.9 28.8 0 16-13 28.9-28.9 28.9zm0-40.9c-6.6 0-12 5.4-12 12 0 6.7 5.4 12 12 12 6.6 0 12-5.3 12-12 0-6.6-5.4-12-12-12z"/>
		<path id="Layer" class="s0" d="m39.3 172.9h-26.1c-4.7 0-8.5-3.8-8.5-8.5 0-4.6 3.8-8.4 8.5-8.4h26.1c4.6 0 8.4 3.8 8.4 8.4 0 4.7-3.8 8.5-8.4 8.5z"/>
	</g>
</svg>